<?xml version="1.0" encoding="UTF-8" ?>
<!DOCTYPE svg PUBLIC "-//W3C//DTD SVG 1.1//EN" "http://www.w3.org/Graphics/SVG/1.1/DTD/svg11.dtd">
<svg width="160pt" height="160pt" viewBox="0 0 160 160" version="1.1" xmlns="http://www.w3.org/2000/svg">
<g id="#000000ff">
<path fill="#000000" opacity="1.00" d=" M 52.54 17.67 C 55.37 10.26 62.47 4.96 70.13 3.43 C 74.41 2.52 78.70 3.71 82.97 4.03 C 92.58 4.71 102.19 3.74 111.78 3.14 C 112.03 6.42 110.80 9.46 108.83 12.02 C 114.18 15.81 118.44 21.13 120.58 27.37 C 123.95 36.66 123.48 46.86 121.77 56.45 C 125.00 61.23 125.13 67.27 123.79 72.72 C 122.52 77.70 121.20 82.88 118.01 87.02 C 116.82 88.57 115.89 90.30 115.29 92.17 C 113.86 96.54 111.44 100.50 108.73 104.19 C 108.73 106.26 108.72 108.34 108.72 110.41 C 121.05 113.45 133.36 117.73 143.69 125.31 C 151.08 130.80 157.35 138.63 158.65 147.99 C 158.90 150.80 159.71 154.20 157.61 156.54 C 156.23 158.12 154.03 158.29 152.07 158.28 C 103.71 158.22 55.34 158.29 6.98 158.24 C 4.30 158.48 1.44 156.60 1.16 153.82 C 0.63 147.05 2.90 140.26 6.81 134.77 C 17.40 120.73 34.90 114.52 51.34 110.36 C 51.19 107.83 51.97 104.93 50.26 102.76 C 48.07 99.49 46.02 96.08 44.82 92.31 C 43.69 88.15 40.14 85.28 38.85 81.18 C 35.99 73.38 33.24 63.89 38.31 56.38 C 37.06 46.70 35.44 36.15 39.99 27.06 C 42.41 22.09 47.19 18.77 52.54 17.67 M 57.86 41.82 C 52.11 46.72 50.20 54.51 49.26 61.69 C 48.42 61.85 46.73 62.16 45.89 62.31 C 45.04 64.76 44.98 67.36 45.64 69.87 C 46.84 74.80 47.96 80.27 52.22 83.52 C 54.26 92.70 59.51 101.46 67.76 106.31 C 73.59 109.88 81.02 111.03 87.48 108.52 C 98.06 104.51 105.55 94.34 107.68 83.40 C 111.63 80.96 112.65 76.18 113.87 72.05 C 114.49 69.25 115.49 66.18 114.41 63.38 C 113.89 61.75 111.79 62.17 110.53 61.59 C 112.30 55.86 111.29 48.98 106.26 45.20 C 95.77 47.50 84.93 44.98 75.28 40.76 C 69.79 38.38 62.72 37.69 57.86 41.82 M 61.62 114.04 C 60.35 116.48 58.62 118.63 56.36 120.22 C 61.98 127.40 70.85 132.09 80.06 131.77 C 89.22 132.03 98.05 127.37 103.61 120.20 C 101.37 118.57 99.59 116.45 98.38 113.96 C 87.51 121.39 72.53 121.33 61.62 114.04 Z" />
<path fill="#000000" opacity="1.00" d=" M 52.32 64.95 C 53.96 59.87 58.42 55.51 63.94 55.27 C 68.89 54.80 73.44 57.79 76.05 61.82 C 78.55 61.07 81.14 61.04 83.64 61.83 C 86.21 58.09 90.29 55.06 95.02 55.26 C 100.71 55.19 105.68 59.41 107.27 64.75 C 107.93 64.88 109.23 65.14 109.89 65.27 C 109.87 67.03 109.85 68.80 109.83 70.56 C 109.20 70.63 107.94 70.75 107.32 70.81 C 105.73 75.80 101.44 80.05 96.03 80.34 C 90.22 80.97 84.29 76.98 82.88 71.28 C 82.21 69.95 82.17 67.32 80.09 67.55 C 77.58 67.02 77.19 69.99 76.63 71.67 C 74.85 78.72 66.05 82.42 59.60 79.32 C 55.95 77.82 53.62 74.42 52.40 70.79 C 51.76 70.75 50.48 70.68 49.84 70.64 C 49.84 68.83 49.85 67.03 49.84 65.22 C 50.46 65.15 51.70 65.02 52.32 64.95 M 62.33 61.20 C 57.25 62.87 56.18 70.41 60.53 73.48 C 64.46 76.72 71.26 74.12 71.79 68.98 C 72.94 63.84 67.15 59.05 62.33 61.20 M 92.40 61.18 C 87.34 62.89 86.21 70.33 90.54 73.43 C 94.45 76.77 101.32 74.12 101.86 68.98 C 102.97 63.87 97.21 59.03 92.40 61.18 Z" />
<path fill="#000000" opacity="1.00" d=" M 67.84 87.63 C 75.25 87.49 82.67 87.47 90.07 87.58 C 93.33 87.33 93.38 93.61 90.01 93.23 C 82.43 92.98 74.65 94.12 67.21 92.53 C 67.35 90.89 67.55 89.25 67.84 87.63 Z" />
</g>
</svg>
